<svg xmlns="http://www.w3.org/2000/svg" version="1.1" xmlns:xlink="http://www.w3.org/1999/xlink" xmlns:svgjs="http://svgjs.com/svgjs" width="512" height="512" x="0" y="0" viewBox="0 0 32 32" style="enable-background:new 0 0 512 512" xml:space="preserve"><g><g xmlns="http://www.w3.org/2000/svg" id="Layer_2" data-name="Layer 2"><path d="m10.63 23.41h4.37v5.59h-3a1 1 0 0 0 0 2h8a1 1 0 0 0 0-2h-3v-5.59h4.37a6.74 6.74 0 0 0 6.81-6.13 6.61 6.61 0 0 0 -4.12-6.58 7.94 7.94 0 0 0 .14-1.46 8.32 8.32 0 0 0 -8.14-8.24 8.19 8.19 0 0 0 -8.26 8.2 7.48 7.48 0 0 0 .14 1.5 6.61 6.61 0 0 0 -4.12 6.58 6.74 6.74 0 0 0 6.81 6.13z" fill="#FFD700" data-original="#000000"></path></g></g></svg>